<?xml version="1.0" standalone="no"?>
<!DOCTYPE svg PUBLIC "-//W3C//DTD SVG 20010904//EN"
 "http://www.w3.org/TR/2001/REC-SVG-20010904/DTD/svg10.dtd">
<svg version="1.0" xmlns="http://www.w3.org/2000/svg"
 width="1024.000000pt" height="1024.000000pt" viewBox="0 0 1024.000000 1024.000000"
 preserveAspectRatio="xMidYMid meet">
<metadata>
Created by potrace 1.14, written by Peter Selinger 2001-2017
</metadata>
<g transform="translate(0.000000,1024.000000) scale(0.100000,-0.100000)"
fill="#000000" stroke="none">
<path d="M3211 9582 c-116 -314 -235 -762 -295 -1112 -29 -166 -30 -179 -52
-375 -26 -235 -25 -847 1 -928 2 -6 6 -34 9 -62 11 -98 33 -209 81 -405 73
-297 270 -701 457 -934 148 -186 302 -351 433 -466 33 -29 74 -65 90 -79 78
-69 406 -311 420 -311 3 0 18 -8 33 -19 130 -89 411 -246 422 -235 4 5 15 34
25 64 9 30 41 105 71 166 105 219 251 404 444 560 l69 55 -13 37 c-100 279
-352 835 -499 1097 -18 33 -48 86 -66 118 -46 83 -164 278 -211 349 -22 32
-40 63 -40 68 0 5 -3 10 -7 12 -5 2 -42 55 -85 118 -119 179 -385 532 -466
620 -56 60 -71 143 -38 207 38 74 141 107 214 69 42 -22 179 -187 382 -461
120 -162 363 -521 406 -600 5 -11 33 -58 61 -105 211 -352 468 -886 619 -1287
15 -40 31 -73 35 -73 3 0 38 12 75 26 96 36 147 51 234 69 114 22 128 24 225
31 50 4 91 8 93 9 7 6 16 224 16 395 0 225 -10 385 -39 590 -12 85 -57 286
-90 400 -151 521 -475 1006 -925 1384 -47 39 -92 77 -100 85 -24 24 -230 175
-295 217 -33 21 -62 41 -65 44 -4 5 -109 70 -168 105 -372 220 -831 425 -1262
563 -190 61 -174 61 -199 -6z"/>
<path d="M2347 7204 c-1 -1 -65 -5 -142 -9 -77 -4 -156 -8 -175 -10 -19 -2
-69 -6 -110 -9 -71 -6 -106 -10 -192 -22 -21 -3 -50 -6 -65 -8 -44 -6 -126
-18 -148 -22 -11 -2 -33 -7 -50 -9 -132 -23 -156 -28 -225 -44 -25 -5 -56 -12
-70 -14 -49 -9 -277 -69 -375 -99 -55 -16 -115 -34 -133 -38 -19 -5 -36 -10
-38 -13 -3 -2 0 -24 6 -48 6 -24 12 -52 15 -62 23 -100 83 -302 137 -462 185
-550 448 -1070 744 -1471 191 -259 488 -560 684 -694 19 -13 37 -27 40 -31 3
-3 20 -15 38 -26 l33 -20 52 26 c329 163 762 298 1107 346 25 3 56 8 70 10 14
2 54 7 90 11 36 4 81 9 100 11 66 8 555 11 607 4 29 -4 50 -4 48 -1 -2 4 -44
31 -92 60 -550 336 -1000 758 -1290 1210 -90 141 -201 350 -228 430 -1 3 -7
19 -14 35 -85 199 -179 527 -207 718 -2 15 -6 39 -8 55 -2 15 -7 50 -10 77
-12 95 -17 115 -29 116 -23 2 -169 4 -170 3z"/>
<path d="M8398 6245 c-2 -2 -35 -6 -73 -9 -82 -7 -92 -9 -199 -36 -88 -23
-235 -82 -278 -112 -14 -10 -29 -18 -33 -18 -11 0 -135 -90 -179 -130 -136
-124 -208 -217 -294 -383 l-30 -59 66 -55 c99 -82 147 -129 216 -213 206 -246
333 -535 373 -850 10 -75 9 -308 -1 -401 l-8 -77 81 -27 c45 -15 87 -28 94
-29 7 -1 37 -8 67 -14 85 -18 127 -22 236 -22 332 -1 641 130 875 371 178 183
294 424 334 689 6 40 6 251 1 292 -4 28 -16 99 -21 129 -16 83 -88 263 -142
353 -209 347 -569 568 -967 592 -50 3 -96 7 -103 9 -6 2 -13 2 -15 0z m180
-505 c273 -49 519 -290 570 -560 27 -137 18 -195 -43 -274 -81 -106 -267 -111
-362 -8 -36 39 -49 69 -63 142 -20 107 -73 178 -155 210 -17 7 -65 14 -108 16
-95 5 -154 31 -203 87 -98 115 -71 281 59 364 63 40 169 48 305 23z"/>
<path d="M6155 5466 c-453 -72 -849 -393 -1012 -821 -28 -74 -62 -192 -68
-240 -1 -11 -6 -41 -10 -66 -9 -60 -10 -227 -1 -309 15 -137 71 -318 134 -441
52 -98 66 -121 126 -198 193 -249 447 -411 756 -482 116 -27 363 -34 480 -14
287 51 513 167 715 370 176 175 289 375 346 609 27 115 34 182 33 332 -3 256
-77 491 -227 714 -65 96 -240 271 -337 335 -123 82 -319 170 -420 188 -14 3
-36 8 -50 11 -66 15 -95 18 -235 21 -88 2 -183 -2 -230 -9z m312 -533 c121
-61 174 -179 137 -304 -20 -68 -44 -101 -97 -138 -51 -34 -94 -48 -168 -54
-137 -12 -231 -109 -242 -253 -14 -165 -120 -266 -274 -260 -108 4 -205 79
-234 181 -27 93 0 273 60 402 128 273 402 451 693 451 62 -1 88 -6 125 -25z"/>
<path d="M3859 4176 c-2 -2 -49 -6 -104 -10 -55 -3 -111 -8 -125 -10 -14 -2
-50 -7 -80 -10 -214 -24 -573 -112 -735 -180 -16 -7 -46 -19 -65 -26 -58 -21
-305 -143 -308 -152 -2 -4 -8 -8 -13 -8 -18 0 -234 -146 -339 -230 -105 -83
-350 -322 -425 -414 -22 -27 -45 -54 -50 -60 -29 -31 -150 -192 -207 -276
-154 -225 -376 -632 -477 -875 -81 -197 -220 -579 -235 -650 -2 -5 -12 -41
-24 -80 -11 -38 -32 -116 -46 -171 -14 -56 -28 -108 -31 -116 -4 -10 18 -22
82 -42 49 -16 102 -32 118 -37 17 -4 84 -22 150 -39 66 -18 129 -34 140 -36
11 -2 39 -8 63 -14 89 -21 207 -46 262 -56 19 -3 71 -11 115 -19 106 -18 244
-36 370 -49 28 -3 84 -8 125 -13 99 -10 640 -10 755 0 93 8 237 27 388 52 70
12 288 69 391 102 203 65 459 184 606 282 34 23 64 41 66 41 3 0 10 4 17 10 7
5 55 42 107 82 214 163 385 331 559 548 50 63 96 120 101 127 20 24 178 259
198 293 11 19 52 90 90 157 78 135 227 433 237 476 5 17 3 27 -3 27 -10 0
-138 84 -152 100 -3 3 -27 23 -55 45 -149 119 -314 325 -402 500 -20 39 -36
71 -38 73 -4 5 -598 -196 -769 -260 -501 -187 -877 -374 -1220 -608 -38 -26
-170 -124 -196 -146 -171 -144 -287 -256 -428 -411 -46 -51 -93 -95 -105 -99
-38 -13 -114 -7 -144 11 -66 39 -97 131 -68 200 31 76 320 370 524 535 23 19
57 47 74 62 18 15 35 28 39 28 4 0 13 6 20 13 28 28 270 188 396 261 166 96
402 214 592 296 80 34 163 70 185 80 83 37 441 166 710 256 309 103 288 90
272 174 -4 19 -10 69 -13 110 -3 41 -7 84 -8 95 -3 22 -32 31 -141 40 -38 3
-90 8 -115 11 -53 6 -625 15 -631 10z"/>
<path d="M7859 3573 c-22 -58 -103 -211 -147 -278 -198 -299 -496 -528 -832
-641 -107 -36 -104 -30 -75 -139 83 -316 307 -596 590 -737 63 -31 172 -75
205 -82 14 -3 59 -12 100 -22 92 -20 294 -23 400 -4 462 79 833 439 927 898
21 105 25 306 6 412 -32 188 -124 395 -230 518 -28 33 -28 33 -82 22 -172 -33
-424 -33 -580 1 -29 6 -58 12 -64 13 -36 8 -79 21 -140 42 l-68 24 -10 -27z"/>
</g>
</svg>
